<svg width="160" height="24" viewBox="0 0 160 24" fill="none" xmlns="http://www.w3.org/2000/svg">
<path fill-rule="evenodd" clip-rule="evenodd" d="M117.589 7.25031L115.566 13.1364H119.669L117.656 7.25031H117.589ZM118.999 4.65771L124.152 18.6332H121.538L120.326 15.1637H114.934L113.77 18.6332H111.175L116.327 4.65771H118.999Z" fill="#5B5B5B"/>
<path fill-rule="evenodd" clip-rule="evenodd" d="M125.328 8.61475H133.162V9.56034L128.019 16.7624H133.191V18.6335H124.966V17.5126L130.032 10.4859H125.328V8.61475Z" fill="#5B5B5B"/>
<path fill-rule="evenodd" clip-rule="evenodd" d="M143.355 8.61475V18.6335H141.026V17.3175H140.988C140.683 17.7727 140.274 18.1282 139.762 18.3848C139.25 18.6413 138.676 18.7701 138.04 18.7701C136.901 18.7701 136.034 18.4401 135.44 17.7805C134.845 17.1212 134.547 16.0963 134.547 14.7059V8.61475H136.885V14.4232C136.885 15.2678 137.049 15.9029 137.377 16.3286C137.704 16.754 138.199 16.9669 138.861 16.9669C139.516 16.9669 140.04 16.7314 140.435 16.2603C140.829 15.7893 141.026 15.1734 141.026 14.4135V8.61475H143.355Z" fill="#5B5B5B"/>
<path fill-rule="evenodd" clip-rule="evenodd" d="M149.99 8.44873C150.175 8.44873 150.34 8.46167 150.486 8.48755C150.633 8.51375 150.757 8.5461 150.859 8.58525V10.973C150.738 10.8818 150.561 10.796 150.329 10.7145C150.097 10.6333 149.815 10.5929 149.485 10.5929C148.918 10.5929 148.44 10.8365 148.049 11.3237C147.657 11.8112 147.462 12.5614 147.462 13.5749V18.6328H145.153V8.61436H147.462V10.1934H147.5C147.71 9.6473 148.028 9.22028 148.454 8.91166C148.88 8.60336 149.392 8.44873 149.99 8.44873" fill="#5B5B5B"/>
<path fill-rule="evenodd" clip-rule="evenodd" d="M157.73 12.61C157.73 11.8304 157.553 11.2361 157.2 10.8266C156.847 10.4173 156.35 10.2129 155.707 10.2129C155.154 10.2129 154.658 10.416 154.219 10.822C153.78 11.228 153.487 11.8239 153.341 12.61H157.73ZM159.208 16.1088V18.0485C158.826 18.2953 158.327 18.4949 157.71 18.6476C157.093 18.8003 156.434 18.8767 155.735 18.8767C154.239 18.8767 153.077 18.4254 152.247 17.5222C151.417 16.6193 151.002 15.3618 151.002 13.7505C151.002 12.198 151.445 10.9192 152.333 9.91573C153.22 8.91158 154.345 8.41016 155.706 8.41016C157.061 8.41016 158.115 8.83362 158.869 9.68151C159.623 10.5294 160 11.7005 160 13.195V14.3354H153.282C153.384 15.3424 153.701 16.0454 154.232 16.4449C154.763 16.8448 155.448 17.0444 156.288 17.0444C156.841 17.0444 157.369 16.9583 157.872 16.7862C158.374 16.6141 158.82 16.3883 159.208 16.1088V16.1088Z" fill="#5B5B5B"/>
<path fill-rule="evenodd" clip-rule="evenodd" d="M102.291 10.5447H98.852V18.6335H96.5144V10.5447H94.8731V8.61499H96.5144V7.22135C96.5144 6.16868 96.8495 5.30623 97.521 4.634C98.1919 3.96112 99.0522 3.625 100.102 3.625C100.382 3.625 100.63 3.63956 100.846 3.669C101.063 3.69843 101.254 3.74211 101.419 3.80034V5.83742C101.342 5.79213 101.209 5.73681 101.018 5.67179C100.827 5.60676 100.608 5.57441 100.36 5.57441C99.876 5.57441 99.5041 5.7284 99.2432 6.03702C98.9822 6.34596 98.852 6.80242 98.852 7.40639V8.61499H102.291V6.36343L104.61 5.64267V8.61499H106.948V10.5447H104.61V15.2319C104.61 15.8494 104.72 16.2849 104.939 16.5378C105.159 16.7915 105.504 16.9179 105.974 16.9179C106.108 16.9179 106.268 16.8859 106.456 16.8206C106.644 16.7559 106.808 16.6779 106.948 16.587V18.5358C106.801 18.6205 106.558 18.6982 106.217 18.77C105.877 18.8412 105.542 18.8771 105.211 18.8771C104.238 18.8771 103.508 18.6124 103.021 18.0829C102.534 17.5533 102.291 16.7559 102.291 15.6899V10.5447ZM86.9557 13.6922C86.9557 14.7384 87.1879 15.5375 87.6523 16.09C88.1163 16.6422 88.7811 16.9178 89.6465 16.9178C90.4861 16.9178 91.1256 16.6422 91.5643 16.09C92.0033 15.5375 92.2228 14.7187 92.2228 13.6337C92.2228 12.5554 91.9954 11.7415 91.5406 11.1925C91.0857 10.6436 90.4478 10.3692 89.6274 10.3692C88.7811 10.3692 88.1245 10.6565 87.657 11.2317C87.1892 11.8062 86.9557 12.6269 86.9557 13.6922V13.6922ZM84.5517 13.7702C84.5517 12.1135 85.0097 10.8011 85.9257 9.83286C86.8417 8.86495 88.114 8.38099 89.7424 8.38099C91.2754 8.38099 92.473 8.84716 93.3352 9.77948C94.197 10.7121 94.6278 11.9706 94.6278 13.556C94.6278 15.1803 94.1698 16.473 93.2541 17.4345C92.3378 18.3962 91.0911 18.877 89.5134 18.877C87.993 18.877 86.786 18.4208 85.8924 17.5076C84.9986 16.595 84.5517 15.3492 84.5517 13.7702V13.7702ZM79.3519 11.2464C79.3519 11.5841 79.4571 11.8487 79.6671 12.0406C79.8768 12.2321 80.3411 12.474 81.0601 12.7665C81.9825 13.1434 82.6299 13.5675 83.0017 14.0385C83.3739 14.5095 83.5601 15.0795 83.5601 15.7488C83.5601 16.6909 83.2054 17.4479 82.4962 18.0192C81.7867 18.5914 80.8279 18.8771 79.6193 18.8771C79.2122 18.8771 78.7618 18.8269 78.269 18.726C77.7758 18.6254 77.3577 18.497 77.0141 18.341V16.0219C77.4341 16.3205 77.8857 16.5576 78.3691 16.7329C78.8527 16.9086 79.2914 16.9962 79.6861 16.9962C80.2074 16.9962 80.5926 16.9215 80.8406 16.7721C81.0886 16.6226 81.2128 16.3725 81.2128 16.0219C81.2128 15.6967 81.0839 15.4221 80.8264 15.1982C80.5688 14.9737 80.0804 14.7156 79.3614 14.4231C78.5091 14.0595 77.9051 13.6503 77.5487 13.1954C77.1924 12.7406 77.0141 12.1625 77.0141 11.4605C77.0141 10.5576 77.3657 9.81519 78.0685 9.23354C78.7713 8.65221 79.6829 8.36171 80.8026 8.36171C81.1459 8.36171 81.5308 8.40053 81.9571 8.47817C82.3831 8.55646 82.7395 8.65739 83.0258 8.78064V11.0222C82.7205 10.8142 82.3641 10.6356 81.9571 10.4858C81.5498 10.3364 81.1459 10.2619 80.7453 10.2619C80.3063 10.2619 79.9642 10.3496 79.7194 10.525C79.4745 10.7003 79.3519 10.941 79.3519 11.2464V11.2464ZM68.2453 13.6922C68.2453 14.7384 68.4771 15.5375 68.9418 16.09C69.4061 16.6422 70.071 16.9178 70.936 16.9178C71.776 16.9178 72.4152 16.6422 72.8538 16.09C73.2928 15.5375 73.5123 14.7187 73.5123 13.6337C73.5123 12.5554 73.2849 11.7415 72.8301 11.1925C72.3752 10.6436 71.7373 10.3692 70.917 10.3692C70.071 10.3692 69.414 10.6565 68.9465 11.2317C68.4787 11.8062 68.2453 12.6269 68.2453 13.6922V13.6922ZM65.8412 13.7702C65.8412 12.1135 66.2992 10.8011 67.2152 9.83286C68.1312 8.86495 69.4036 8.38099 71.0319 8.38099C72.5653 8.38099 73.7625 8.84716 74.6247 9.77948C75.4866 10.7121 75.9176 11.9706 75.9176 13.556C75.9176 15.1803 75.4593 16.473 74.5436 17.4345C73.6276 18.3962 72.3806 18.877 70.8029 18.877C69.2826 18.877 68.0755 18.4208 67.1819 17.5076C66.2881 16.595 65.8412 15.3492 65.8412 13.7702V13.7702ZM64.8484 8.44898C65.0327 8.44898 65.1984 8.46224 65.3444 8.48845C65.4907 8.51433 65.6149 8.54635 65.7169 8.5855V10.9733C65.5959 10.8823 65.4191 10.7963 65.1873 10.7151C64.9548 10.6336 64.6732 10.5931 64.3429 10.5931C63.7765 10.5931 63.2979 10.8367 62.9068 11.3239C62.5156 11.8114 62.3198 12.5616 62.3198 13.5752V18.6334H60.0105V8.61494H62.3198V10.1936H62.3578C62.5678 9.64787 62.8858 9.22085 63.3122 8.91191C63.7382 8.60361 64.2504 8.44898 64.8484 8.44898V8.44898ZM55.9941 16.918C56.3374 16.918 56.7159 16.8371 57.1293 16.6747C57.5429 16.512 57.9246 16.2978 58.2746 16.0312V18.2239C57.9056 18.4384 57.4872 18.6008 57.0197 18.7111C56.5525 18.8218 56.0384 18.8771 55.4787 18.8771C54.0344 18.8771 52.8609 18.4109 51.9578 17.4786C51.0542 16.5463 50.6028 15.3558 50.6028 13.9071C50.6028 12.2955 51.064 10.9688 51.9863 9.92551C52.9087 8.88287 54.2159 8.36171 55.9082 8.36171C56.3409 8.36171 56.778 8.41864 57.2202 8.53219C57.6623 8.64574 58.0136 8.77708 58.2746 8.92654V11.1878C57.9183 10.9212 57.554 10.7152 57.1818 10.5686C56.81 10.4227 56.4296 10.3496 56.0416 10.3496C55.1319 10.3496 54.3974 10.6518 53.8374 11.2561C53.2777 11.86 52.9977 12.6756 52.9977 13.702C52.9977 14.7156 53.2663 15.5052 53.8041 16.0704C54.3416 16.6355 55.0717 16.918 55.9941 16.918V16.918ZM46.6807 18.6331H48.9898V8.61463H46.6807V18.6331ZM46.4424 5.72065C46.4424 5.33083 46.5808 5.0041 46.8577 4.74109C47.1342 4.47776 47.4633 4.34642 47.8449 4.34642C48.252 4.34642 48.5896 4.48132 48.8566 4.7508C49.1239 5.02027 49.2573 5.34377 49.2573 5.72065C49.2573 6.10367 49.1205 6.42556 48.8471 6.685C48.5734 6.9451 48.2396 7.07482 47.8449 7.07482C47.4506 7.07482 47.1183 6.94348 46.8482 6.68048C46.5773 6.41715 46.4424 6.0972 46.4424 5.72065V5.72065ZM44.4547 4.65818V18.6334H42.0788V7.67935H42.0405L37.7943 18.6334H36.2201L31.8687 7.67935H31.8402V18.6334H29.6455V4.65818H33.052L36.9834 15.0176H37.0404L41.1913 4.65818H44.4547Z" fill="#5B5B5B"/>
<path fill-rule="evenodd" clip-rule="evenodd" d="M0.00268555 11.0733H10.8412V0.00341797H0.00268555V11.0733Z" fill="#F25022"/>
<path fill-rule="evenodd" clip-rule="evenodd" d="M11.9661 11.0699H22.8046V0H11.9661V11.0699Z" fill="#7FBA00"/>
<path fill-rule="evenodd" clip-rule="evenodd" d="M0 23.291H10.8385V12.2212H0V23.291Z" fill="#00A4EF"/>
<path fill-rule="evenodd" clip-rule="evenodd" d="M11.9661 23.291H22.8046V12.2212H11.9661V23.291Z" fill="#FFB900"/>
</svg>
